<svg width="20" height="20" viewBox="0 0 20 20" fill="none" xmlns="http://www.w3.org/2000/svg">
<path fill-rule="evenodd" clip-rule="evenodd" d="M5.04449 0.045746C4.66535 0.106484 4.10736 0.401926 3.8098 0.699577C3.30191 1.20756 3.10733 1.72883 3.10733 2.58159V3.10453H2.57619C1.95585 3.10453 1.63149 3.17549 1.2328 3.39848C0.634219 3.7333 0.147722 4.42485 0.0450082 5.08706C0.016086 5.27351 -0.000267002 7.63115 3.29856e-06 11.5754C0.00049885 18.3882 -0.0104484 18.1063 0.27616 18.6945C0.462713 19.0773 0.920782 19.5338 1.31024 19.7251C1.89062 20.0102 1.61482 19.9995 8.42325 20C12.3668 20.0003 14.724 19.9839 14.9105 19.955C15.5156 19.8611 16.1542 19.4417 16.5114 18.9036C16.7889 18.4857 16.8631 18.208 16.8833 17.5117L16.9013 16.8921H17.4198C18.0276 16.8921 18.3719 16.8169 18.7653 16.5983C19.3595 16.268 19.8529 15.5677 19.955 14.9096C19.9839 14.7232 20.0003 12.3655 20 8.42132C19.9995 1.60875 20.0104 1.88793 19.7241 1.30488C19.5349 0.919593 19.0772 0.461853 18.692 0.272656C18.1079 -0.0142255 18.3956 -0.00332165 11.5317 0.00158962C8.10001 0.00406779 5.18077 0.0239382 5.04449 0.045746ZM17.9634 1.5522C18.1861 1.6452 18.3287 1.78249 18.4293 2.00061C18.5089 2.1731 18.5125 2.45191 18.5135 8.47057L18.5145 14.7602L18.4096 14.9589C18.3408 15.089 18.2299 15.2038 18.0873 15.2921C17.8875 15.4159 17.8303 15.4282 17.3813 15.4435L16.8927 15.4603V10.3057C16.8927 5.88593 16.8831 5.11432 16.8256 4.89345C16.6063 4.05159 15.9458 3.39091 15.104 3.17162C14.8832 3.11408 14.1117 3.10453 9.69271 3.10453H4.53898L4.55569 2.61583C4.57106 2.16674 4.58331 2.10956 4.70711 1.90969C4.79541 1.76708 4.91015 1.6561 5.0403 1.58735L5.23888 1.48245H11.5177C17.083 1.48245 17.8155 1.49038 17.9634 1.5522ZM14.8095 4.6149C15.1094 4.70398 15.3368 4.95892 15.4067 5.28441C15.4417 5.4477 15.4522 7.32043 15.4424 11.6916L15.4285 17.868L15.2934 18.0862C15.2046 18.2295 15.0901 18.3405 14.9597 18.4093L14.7611 18.5142L8.47249 18.5132C2.45483 18.5123 2.17606 18.5087 2.00361 18.4291C1.78552 18.3284 1.64825 18.1858 1.55527 17.9631C1.49346 17.8152 1.48553 17.0833 1.48553 11.5234C1.48553 5.25675 1.48562 5.25048 1.5795 5.05656C1.68127 4.84627 1.85463 4.7002 2.11105 4.60855C2.24102 4.56209 3.51621 4.54993 8.42631 4.54835C13.8055 4.54664 14.6078 4.55497 14.8095 4.6149Z" fill="#5D6165"/>
</svg>
